/* XPM */
static char *eclipse[] = {
/* columns rows colors chars-per-pixel */
"24 24 123 2 ",
"   c #07C106915487",
".  c #0983086C56B6",
"X  c #0D670CD65A47",
"o  c #0F920DD55DD1",
"O  c #127711BC5EDA",
"+  c #14AB134061FC",
"@  c #18261729644D",
"#  c #1BA41AA06763",
"$  c #19C016246B89",
"%  c #1CF61BA2693F",
"&  c #204D1F0F6B76",
"*  c #217820AE6CBA",
"=  c #26C2257071C5",
"-  c #2B572AB07699",
";  c #248E1FCA78ED",
":  c #2F852DA57CED",
">  c #2FF52F8F7B27",
",  c #313E30FC7C40",
"<  c #393633477DC6",
"1  c #3F553FA37F2C",
"2  c #2DB027888312",
"3  c #32102BA3896E",
"4  c #36BF35E080F6",
"5  c #3C533B90864D",
"6  c #3DCE3AFD8C1A",
"7  c #3E1C35D199D6",
"8  c #40ED3B9B9550",
"9  c #40FC386E9CC7",
"0  c #45BC3C7FA312",
"q  c #3D6940A4816B",
"w  c #416240CD84C9",
"e  c #432A42828ACB",
"r  c #494E45298D03",
"t  c #46A14A088A9D",
"y  c #4A184D6C8E18",
"u  c #51F545B68EF8",
"i  c #471F464E90B2",
"p  c #4D224B16955D",
"a  c #4B6345829D6C",
"s  c #4D554A199932",
"d  c #547F4BAE9120",
"f  c #58DA4D909E91",
"g  c #4DF151D592F4",
"h  c #523C5577939E",
"j  c #5B5751EB95B2",
"k  c #55135A2D95B2",
"l  c #535D530C9C18",
"z  c #565C5AF09ACC",
"x  c #59405E079B48",
"c  c #5C72624B9E2A",
"v  c #4D8F45FCA45C",
"b  c #4E5348A0A314",
"n  c #4E7A457BA99E",
"m  c #50854A9BA5FA",
"M  c #50514707AC74",
"N  c #52414A87AC44",
"B  c #58554C63AFCA",
"V  c #535C5037A1C1",
"C  c #597E5667A1F8",
"Z  c #5C275C54A415",
"A  c #506245DFB093",
"S  c #54284AEDB53C",
"D  c #55994B11BA49",
"F  c #586B4E55BEEC",
"G  c #5DFC595FB0AE",
"H  c #662A5642A2F1",
"J  c #685757B8ACD5",
"K  c #74045DB8A433",
"L  c #71915CC8ABC7",
"P  c #5E3163D0A290",
"I  c #60E46682A47A",
"U  c #642D6A5CA668",
"Y  c #6413638EABBF",
"T  c #65C26BD5AA87",
"R  c #68F26F20ADC7",
"E  c #7AEE6D1CA511",
"W  c #7E8A6612AAD9",
"Q  c #79256A66ADB9",
"!  c #6B4C725AAED5",
"~  c #7DD1713EAA53",
"^  c #6CEC6C57B364",
"/  c #6D7B7481B398",
"(  c #71C67542B595",
")  c #7172792BB629",
"_  c #731174F7B925",
"`  c #74C67C63BADC",
"'  c #7C2B7CA8BE6B",
"]  c #5A514F1CC3E4",
"[  c #595A502CC092",
"{  c #84EB6661A55D",
"}  c #887F677AA66E",
"|  c #87F66DD4AC36",
" . c #8BF26CFBABB7",
".. c #8A6A7CDAAE49",
"X. c #932E7244AEE0",
"o. c #8046770DB85E",
"O. c #8FD77EC0BA5C",
"+. c #9BDF77F6B38A",
"@. c #A7257C84B521",
"#. c #7949811BBE9D",
"$. c #7B7E83C7C273",
"%. c #9736833CB87F",
"&. c #A69F86AEBCCD",
"*. c #AB4C8B46BF33",
"=. c #8F8B8E4AC713",
"-. c #86288DF1C931",
";. c #97E689EEC42E",
":. c #891290B6C9B2",
">. c #9652961ACC20",
",. c #9820970ACCBA",
"<. c #A6728B7BC127",
"1. c #BD529D16C5C9",
"2. c #BAA49F27CBD0",
"3. c #BE54AB8BCF7A",
"4. c #A993A8C7D536",
"5. c #B038ACA4D73E",
"6. c #B1AEB105D9CE",
"7. c #C603BB9ADD29",
"8. c #D5F7C135DC2C",
"9. c #C7E3C7B5E544",
"0. c #CB52CAE4E6AE",
"q. c #D957C9A4E0F0",
"w. c #DDBFDAEDEE03",
/* pixels */
"[ N S N S N B S S S S D D D D F F F [ [ [ ] ] D ",
"N q w w w w e e r y p p p s p a a a v v n n N a ",
"N 1 w w w w h ~ %.O.o._ ^ ^ Y C b v v v v M M b ",
"B 1 w w e E 3.7.5.>.' _ _ ^ Y Y Z l b v M v M a ",
"S w w r ..q.w.9.6.,.' ^ ^ Y Y Z C l s a v M n b ",
"S w e E 8.w.w.0.6.,.' ^ Y Y Z C l s i i a M N b ",
"S q j 1.7.9.0.7.4.=._ Y Y Z C l s i e 5 6 v M a ",
"N t  .2.4.6.6.4.,.' ^ Y Z l l s i e 5 4 , 8 A b ",
"S j @.;.>.,.,.:.o.^ Y Z l l p r w 5 < > = : n b ",
"S K *.-.-.:.:.$.$.$.` ` ) ( ! ! ! T U P c I G b ",
"D { <.$.$.#.` ` ) / R R T I c x z h h y y t l v ",
"S { <.$.$.#.` ` ` ) / ! R T T U P c c x k k V v ",
"D } &.$.$.#.` ` ) / / R T U I I c c c k h h V v ",
"D W &.` ) / / T T I P c x z h g y t t q w w a v ",
"D K &.#.` ` / / ! R T U I P P x x k k h h h G n ",
"F f @.Q Z l l p a q 5 4 > - = % # + O X . @ n m ",
"F a | X.C l s i e 5 4 , - = * % @ O o . . 3 S m ",
"F a C +.K s i t 6 4 , - = * % @ O O .   $ n D v ",
"[ v v L X.j 6 5 4 , - = * % @ O O X   + 9 S D v ",
"[ v v v L | d 4 , - = & & @ O O .   + 7 S S D N ",
"[ m m n n J W j < = * # @ + X . o ; 0 A S D D n ",
"] n n n n n B J H u < = % % * 2 9 A D D S D D n ",
"] A N n n n n N N B A n n n A S S S D D D D D n ",
"S b a b b b b b b b b m v v m m m v m n m n m b "
};
